<mxfile host="65bd71144e">
    <diagram id="hrkb9owEUVyvKpem3Vvd" name="Page-1">
        <mxGraphModel dx="6805" dy="4625" grid="1" gridSize="10" guides="1" tooltips="1" connect="1" arrows="1" fold="1" page="1" pageScale="1" pageWidth="3300" pageHeight="4681" math="0" shadow="0">
            <root>
                <mxCell id="0"/>
                <mxCell id="1" parent="0"/>
                <mxCell id="2" value="" style="rounded=1;whiteSpace=wrap;html=1;fontColor=#FFFF00;fillColor=#1A1A1A;strokeColor=none;arcSize=1;fontSize=16;fontStyle=1;labelPosition=right;verticalLabelPosition=middle;align=left;verticalAlign=middle;" vertex="1" parent="1">
                    <mxGeometry x="-840" y="50" width="700" height="820" as="geometry"/>
                </mxCell>
                <mxCell id="9" value="" style="rounded=1;whiteSpace=wrap;html=1;fillColor=none;dashed=1;strokeColor=#E6E6E6;arcSize=2;" vertex="1" parent="1">
                    <mxGeometry x="-750" y="410" width="460" height="340" as="geometry"/>
                </mxCell>
                <mxCell id="10" value="" style="rounded=1;whiteSpace=wrap;html=1;fillColor=none;dashed=1;strokeColor=#E6E6E6;arcSize=3;" vertex="1" parent="1">
                    <mxGeometry x="-750" y="170" width="460" height="230" as="geometry"/>
                </mxCell>
                <mxCell id="42" style="edgeStyle=none;html=1;strokeColor=#E6E6E6;endArrow=none;endFill=0;startArrow=none;startFill=0;" edge="1" parent="1" source="46" target="47">
                    <mxGeometry relative="1" as="geometry"/>
                </mxCell>
                <mxCell id="43" style="edgeStyle=none;html=1;endArrow=none;endFill=0;strokeColor=#E6E6E6;startArrow=none;startFill=0;" edge="1" parent="1" source="46" target="50">
                    <mxGeometry relative="1" as="geometry"/>
                </mxCell>
                <mxCell id="44" style="edgeStyle=none;html=1;endArrow=none;endFill=0;strokeColor=#E6E6E6;" edge="1" parent="1" source="52" target="51">
                    <mxGeometry relative="1" as="geometry"/>
                </mxCell>
                <mxCell id="45" style="edgeStyle=none;html=1;endArrow=none;endFill=0;strokeColor=#E6E6E6;startArrow=none;startFill=0;" edge="1" parent="1" source="46" target="52">
                    <mxGeometry relative="1" as="geometry"/>
                </mxCell>
                <mxCell id="46" value="&lt;span style=&quot;font-size: 16px&quot;&gt;problem&lt;br&gt;statement&lt;br&gt;&lt;/span&gt;" style="ellipse;whiteSpace=wrap;html=1;aspect=fixed;strokeColor=none;fillColor=#FFFF00;verticalAlign=bottom;labelPosition=center;verticalLabelPosition=top;align=center;fontSize=16;fontStyle=1;fontColor=#E6E6E6;" vertex="1" parent="1">
                    <mxGeometry x="-550" y="220" width="40" height="40" as="geometry"/>
                </mxCell>
                <mxCell id="47" value="&lt;span style=&quot;font-size: 16px&quot;&gt;&lt;br&gt;&lt;/span&gt;" style="ellipse;whiteSpace=wrap;html=1;aspect=fixed;strokeColor=none;fillColor=#009900;verticalAlign=middle;labelPosition=left;verticalLabelPosition=middle;align=right;fontSize=16;fontStyle=1;fontColor=#E6E6E6;" vertex="1" parent="1">
                    <mxGeometry x="-650" y="350" width="40" height="40" as="geometry"/>
                </mxCell>
                <mxCell id="48" style="edgeStyle=none;html=1;endArrow=none;endFill=0;strokeColor=#E6E6E6;" edge="1" parent="1" source="50" target="53">
                    <mxGeometry relative="1" as="geometry"/>
                </mxCell>
                <mxCell id="49" style="edgeStyle=none;html=1;endArrow=none;endFill=0;strokeColor=#E6E6E6;" edge="1" parent="1" source="50" target="54">
                    <mxGeometry relative="1" as="geometry"/>
                </mxCell>
                <mxCell id="50" value="&lt;span style=&quot;font-size: 16px&quot;&gt;&lt;br&gt;&lt;/span&gt;" style="ellipse;whiteSpace=wrap;html=1;aspect=fixed;strokeColor=none;fillColor=#009900;verticalAlign=middle;labelPosition=left;verticalLabelPosition=middle;align=right;fontSize=16;fontStyle=1;fontColor=#E6E6E6;" vertex="1" parent="1">
                    <mxGeometry x="-550" y="350" width="40" height="40" as="geometry"/>
                </mxCell>
                <mxCell id="51" value="&lt;span style=&quot;font-size: 16px&quot;&gt;issue&lt;br&gt;&lt;/span&gt;" style="ellipse;whiteSpace=wrap;html=1;aspect=fixed;strokeColor=none;fillColor=#CC00CC;verticalAlign=middle;labelPosition=right;verticalLabelPosition=middle;align=left;fontSize=16;fontStyle=1;fontColor=#E6E6E6;" vertex="1" parent="1">
                    <mxGeometry x="-450" y="465" width="40" height="40" as="geometry"/>
                </mxCell>
                <mxCell id="52" value="&lt;span style=&quot;font-size: 16px&quot;&gt;behaviour&lt;br&gt;&lt;/span&gt;" style="ellipse;whiteSpace=wrap;html=1;aspect=fixed;strokeColor=none;fillColor=#009900;verticalAlign=middle;labelPosition=right;verticalLabelPosition=middle;align=left;fontSize=16;fontStyle=1;fontColor=#E6E6E6;" vertex="1" parent="1">
                    <mxGeometry x="-450" y="350" width="40" height="40" as="geometry"/>
                </mxCell>
                <mxCell id="53" value="&lt;span style=&quot;font-size: 16px&quot;&gt;&lt;br&gt;&lt;/span&gt;" style="ellipse;whiteSpace=wrap;html=1;aspect=fixed;strokeColor=none;fillColor=#007FFF;verticalAlign=middle;labelPosition=left;verticalLabelPosition=middle;align=right;fontSize=16;fontStyle=1;fontColor=#E6E6E6;" vertex="1" parent="1">
                    <mxGeometry x="-600" y="465" width="40" height="40" as="geometry"/>
                </mxCell>
                <mxCell id="54" value="&lt;span style=&quot;font-size: 16px&quot;&gt;&lt;br&gt;&lt;/span&gt;" style="ellipse;whiteSpace=wrap;html=1;aspect=fixed;strokeColor=none;fillColor=#007FFF;verticalAlign=middle;labelPosition=right;verticalLabelPosition=middle;align=left;fontSize=16;fontStyle=1;fontColor=#E6E6E6;" vertex="1" parent="1">
                    <mxGeometry x="-500" y="465" width="40" height="40" as="geometry"/>
                </mxCell>
                <mxCell id="55" style="edgeStyle=none;html=1;endArrow=none;endFill=0;strokeColor=#E6E6E6;" edge="1" parent="1" source="53" target="56">
                    <mxGeometry relative="1" as="geometry">
                        <mxPoint x="-580" y="500" as="sourcePoint"/>
                    </mxGeometry>
                </mxCell>
                <mxCell id="56" value="&lt;span style=&quot;font-size: 16px&quot;&gt;R12&lt;br&gt;&lt;/span&gt;" style="ellipse;whiteSpace=wrap;html=1;aspect=fixed;strokeColor=none;fillColor=#CC00CC;verticalAlign=middle;labelPosition=center;verticalLabelPosition=middle;align=center;fontSize=16;fontStyle=1;fontColor=#E6E6E6;" vertex="1" parent="1">
                    <mxGeometry x="-600" y="580" width="40" height="40" as="geometry"/>
                </mxCell>
                <mxCell id="57" style="edgeStyle=none;html=1;endArrow=none;endFill=0;strokeColor=#E6E6E6;" edge="1" parent="1" source="54" target="58">
                    <mxGeometry relative="1" as="geometry">
                        <mxPoint x="-480" y="505" as="sourcePoint"/>
                    </mxGeometry>
                </mxCell>
                <mxCell id="58" value="&#10;&#10;&lt;span style=&quot;color: rgb(230, 230, 230); font-family: helvetica; font-size: 16px; font-style: normal; font-weight: 700; letter-spacing: normal; text-align: right; text-indent: 0px; text-transform: none; word-spacing: 0px; display: inline; float: none;&quot;&gt;technical&lt;/span&gt;&lt;br style=&quot;color: rgb(230, 230, 230); font-family: helvetica; font-size: 16px; font-style: normal; font-weight: 700; letter-spacing: normal; text-align: right; text-indent: 0px; text-transform: none; word-spacing: 0px;&quot;&gt;&lt;span style=&quot;color: rgb(230, 230, 230); font-family: helvetica; font-size: 16px; font-style: normal; font-weight: 700; letter-spacing: normal; text-align: right; text-indent: 0px; text-transform: none; word-spacing: 0px; display: inline; float: none;&quot;&gt;requirement&lt;/span&gt;&#10;&#10;" style="ellipse;whiteSpace=wrap;html=1;aspect=fixed;strokeColor=none;fillColor=#007FFF;verticalAlign=middle;labelPosition=right;verticalLabelPosition=middle;align=left;fontSize=16;fontStyle=1;fontColor=#E6E6E6;labelBackgroundColor=none;" vertex="1" parent="1">
                    <mxGeometry x="-500" y="580" width="40" height="40" as="geometry"/>
                </mxCell>
                <mxCell id="59" style="edgeStyle=none;html=1;endArrow=none;endFill=0;strokeColor=#E6E6E6;" edge="1" parent="1" source="60" target="58">
                    <mxGeometry relative="1" as="geometry"/>
                </mxCell>
                <mxCell id="60" value="&lt;span style=&quot;font-size: 16px&quot;&gt;R11&lt;br&gt;&lt;/span&gt;" style="ellipse;whiteSpace=wrap;html=1;aspect=fixed;strokeColor=none;fillColor=#007FFF;verticalAlign=middle;labelPosition=center;verticalLabelPosition=middle;align=center;fontSize=16;fontStyle=1;fontColor=#E6E6E6;" vertex="1" parent="1">
                    <mxGeometry x="-550" y="700" width="40" height="40" as="geometry"/>
                </mxCell>
                <mxCell id="61" style="edgeStyle=none;html=1;endArrow=none;endFill=0;strokeColor=#E6E6E6;" edge="1" parent="1" source="62" target="58">
                    <mxGeometry relative="1" as="geometry"/>
                </mxCell>
                <mxCell id="62" value="&lt;span style=&quot;font-size: 16px&quot;&gt;R43&lt;br&gt;&lt;/span&gt;" style="ellipse;whiteSpace=wrap;html=1;aspect=fixed;strokeColor=none;fillColor=#007FFF;verticalAlign=middle;labelPosition=center;verticalLabelPosition=middle;align=center;fontSize=16;fontStyle=1;fontColor=#E6E6E6;" vertex="1" parent="1">
                    <mxGeometry x="-450" y="700" width="40" height="40" as="geometry"/>
                </mxCell>
                <mxCell id="63" value="&lt;font style=&quot;font-size: 20px&quot;&gt;BDD&lt;/font&gt;" style="text;html=1;strokeColor=none;fillColor=none;align=center;verticalAlign=middle;whiteSpace=wrap;rounded=0;dashed=1;fontColor=#E6E6E6;" vertex="1" parent="1">
                    <mxGeometry x="-285" y="370" width="60" height="30" as="geometry"/>
                </mxCell>
                <mxCell id="64" value="&lt;font style=&quot;font-size: 20px&quot;&gt;TDD&lt;/font&gt;" style="text;html=1;strokeColor=none;fillColor=none;align=center;verticalAlign=middle;whiteSpace=wrap;rounded=0;dashed=1;fontColor=#E6E6E6;" vertex="1" parent="1">
                    <mxGeometry x="-285" y="720" width="60" height="30" as="geometry"/>
                </mxCell>
                <mxCell id="65" style="edgeStyle=none;html=1;fontSize=20;fontColor=#E6E6E6;endArrow=none;endFill=0;strokeColor=#E6E6E6;" edge="1" parent="1" source="66" target="47">
                    <mxGeometry relative="1" as="geometry"/>
                </mxCell>
                <mxCell id="66" value="&lt;span style=&quot;font-size: 16px&quot;&gt;&lt;br&gt;&lt;/span&gt;" style="ellipse;whiteSpace=wrap;html=1;aspect=fixed;strokeColor=none;fillColor=#007FFF;verticalAlign=middle;labelPosition=left;verticalLabelPosition=middle;align=right;fontSize=16;fontStyle=1;fontColor=#E6E6E6;" vertex="1" parent="1">
                    <mxGeometry x="-650" y="465" width="40" height="40" as="geometry"/>
                </mxCell>
                <mxCell id="67" style="edgeStyle=none;html=1;fontSize=20;fontColor=#E6E6E6;endArrow=none;endFill=0;strokeColor=#E6E6E6;" edge="1" parent="1" source="68" target="66">
                    <mxGeometry relative="1" as="geometry"/>
                </mxCell>
                <mxCell id="68" value="&lt;span style=&quot;font-size: 16px&quot;&gt;&lt;br&gt;&lt;/span&gt;" style="ellipse;whiteSpace=wrap;html=1;aspect=fixed;strokeColor=none;fillColor=#007FFF;verticalAlign=middle;labelPosition=left;verticalLabelPosition=middle;align=right;fontSize=16;fontStyle=1;fontColor=#E6E6E6;" vertex="1" parent="1">
                    <mxGeometry x="-650" y="580" width="40" height="40" as="geometry"/>
                </mxCell>
                <mxCell id="69" style="edgeStyle=none;html=1;fontSize=20;fontColor=#E6E6E6;endArrow=none;endFill=0;strokeColor=#E6E6E6;" edge="1" parent="1" source="70" target="66">
                    <mxGeometry relative="1" as="geometry"/>
                </mxCell>
                <mxCell id="70" value="&lt;span style=&quot;font-size: 16px&quot;&gt;R0&lt;br&gt;&lt;/span&gt;" style="ellipse;whiteSpace=wrap;html=1;aspect=fixed;strokeColor=none;fillColor=#007FFF;verticalAlign=middle;labelPosition=center;verticalLabelPosition=middle;align=center;fontSize=16;fontStyle=1;fontColor=#E6E6E6;" vertex="1" parent="1">
                    <mxGeometry x="-730" y="580" width="40" height="40" as="geometry"/>
                </mxCell>
                <mxCell id="71" value="v2" style="rounded=1;whiteSpace=wrap;html=1;labelBackgroundColor=none;fontSize=12;fontColor=#E6E6E6;strokeColor=#E6E6E6;fillColor=none;arcSize=8;fontStyle=1" vertex="1" parent="1">
                    <mxGeometry x="-725" y="630" width="30" height="30" as="geometry"/>
                </mxCell>
                <mxCell id="72" value="v2" style="rounded=1;whiteSpace=wrap;html=1;labelBackgroundColor=none;fontSize=12;fontColor=#E6E6E6;strokeColor=#E6E6E6;fillColor=none;arcSize=8;fontStyle=1" vertex="1" parent="1">
                    <mxGeometry x="-595" y="630" width="30" height="30" as="geometry"/>
                </mxCell>
                <mxCell id="73" value="v1" style="rounded=1;whiteSpace=wrap;html=1;dashed=1;labelBackgroundColor=none;fontSize=12;fontColor=#1A1A1A;strokeColor=none;fillColor=#E6E6E6;arcSize=8;fontStyle=1" vertex="1" parent="1">
                    <mxGeometry x="-590" y="705" width="30" height="30" as="geometry"/>
                </mxCell>
                <mxCell id="74" value="v1" style="rounded=1;whiteSpace=wrap;html=1;dashed=1;labelBackgroundColor=none;fontSize=12;fontColor=#1A1A1A;strokeColor=none;fillColor=#E6E6E6;arcSize=8;fontStyle=1" vertex="1" parent="1">
                    <mxGeometry x="-490" y="705" width="30" height="30" as="geometry"/>
                </mxCell>
                <mxCell id="75" value="v3" style="rounded=1;whiteSpace=wrap;html=1;labelBackgroundColor=none;fontSize=12;fontColor=#E6E6E6;strokeColor=#E6E6E6;fillColor=none;arcSize=8;fontStyle=0" vertex="1" parent="1">
                    <mxGeometry x="-645" y="630" width="30" height="30" as="geometry"/>
                </mxCell>
                <mxCell id="76" value="v3" style="rounded=1;whiteSpace=wrap;html=1;labelBackgroundColor=none;fontSize=12;fontColor=#E6E6E6;strokeColor=#E6E6E6;fillColor=none;arcSize=8;fontStyle=0" vertex="1" parent="1">
                    <mxGeometry x="-445" y="510" width="30" height="30" as="geometry"/>
                </mxCell>
                <mxCell id="477" value="&lt;font style=&quot;font-size: 20px&quot;&gt;problem analysis&lt;br&gt;&amp;amp; behaviour&amp;nbsp;design&lt;br&gt;&lt;/font&gt;" style="text;html=1;strokeColor=none;fillColor=none;align=left;verticalAlign=middle;whiteSpace=wrap;rounded=0;dashed=1;fontColor=#E6E6E6;" vertex="1" parent="1">
                    <mxGeometry x="-750" y="120" width="250" height="50" as="geometry"/>
                </mxCell>
                <mxCell id="478" value="v1" style="rounded=1;whiteSpace=wrap;html=1;dashed=1;labelBackgroundColor=none;fontSize=12;fontColor=#1A1A1A;strokeColor=none;fillColor=#E6E6E6;arcSize=8;fontStyle=1" vertex="1" parent="1">
                    <mxGeometry x="-690" y="320" width="30" height="30" as="geometry"/>
                </mxCell>
                <mxCell id="479" value="v1" style="rounded=1;whiteSpace=wrap;html=1;dashed=1;labelBackgroundColor=none;fontSize=12;fontColor=#1A1A1A;strokeColor=none;fillColor=#E6E6E6;arcSize=8;fontStyle=1" vertex="1" parent="1">
                    <mxGeometry x="-590" y="320" width="30" height="30" as="geometry"/>
                </mxCell>
                <mxCell id="480" value="v2" style="rounded=1;whiteSpace=wrap;html=1;labelBackgroundColor=none;fontSize=12;fontColor=#E6E6E6;strokeColor=#E6E6E6;fillColor=none;arcSize=8;fontStyle=1" vertex="1" parent="1">
                    <mxGeometry x="-690" y="355" width="30" height="30" as="geometry"/>
                </mxCell>
                <mxCell id="481" value="v2" style="rounded=1;whiteSpace=wrap;html=1;labelBackgroundColor=none;fontSize=12;fontColor=#E6E6E6;strokeColor=#E6E6E6;fillColor=none;arcSize=8;fontStyle=1" vertex="1" parent="1">
                    <mxGeometry x="-590" y="355" width="30" height="30" as="geometry"/>
                </mxCell>
                <mxCell id="482" value="v3" style="rounded=1;whiteSpace=wrap;html=1;labelBackgroundColor=none;fontSize=12;fontColor=#E6E6E6;strokeColor=#E6E6E6;fillColor=none;arcSize=8;fontStyle=0" vertex="1" parent="1">
                    <mxGeometry x="-485" y="355" width="30" height="30" as="geometry"/>
                </mxCell>
                <mxCell id="483" value="v1" style="rounded=1;whiteSpace=wrap;html=1;dashed=1;labelBackgroundColor=none;fontSize=12;fontColor=#1A1A1A;strokeColor=none;fillColor=#E6E6E6;arcSize=8;fontStyle=1" vertex="1" parent="1">
                    <mxGeometry x="-480" y="190" width="30" height="30" as="geometry"/>
                </mxCell>
                <mxCell id="484" value="v2" style="rounded=1;whiteSpace=wrap;html=1;labelBackgroundColor=none;fontSize=12;fontColor=#E6E6E6;strokeColor=#E6E6E6;fillColor=none;arcSize=8;fontStyle=1" vertex="1" parent="1">
                    <mxGeometry x="-480" y="225" width="30" height="30" as="geometry"/>
                </mxCell>
                <mxCell id="485" value="v3" style="rounded=1;whiteSpace=wrap;html=1;labelBackgroundColor=none;fontSize=12;fontColor=#E6E6E6;strokeColor=#E6E6E6;fillColor=none;arcSize=8;fontStyle=0" vertex="1" parent="1">
                    <mxGeometry x="-480" y="260" width="30" height="30" as="geometry"/>
                </mxCell>
                <mxCell id="486" value="&lt;font style=&quot;font-size: 20px&quot;&gt;technical&amp;nbsp;requirements&lt;br&gt;&amp;amp; development&lt;br&gt;&lt;/font&gt;" style="text;html=1;strokeColor=none;fillColor=none;align=left;verticalAlign=middle;whiteSpace=wrap;rounded=0;dashed=1;fontColor=#E6E6E6;" vertex="1" parent="1">
                    <mxGeometry x="-750" y="750" width="300" height="50" as="geometry"/>
                </mxCell>
            </root>
        </mxGraphModel>
    </diagram>
</mxfile>